<svg width="300" height="301" viewBox="0 0 300 301" fill="none" xmlns="http://www.w3.org/2000/svg">
<path d="M0 230.256H300V230.106H0V230.256Z" fill="#ECECEC"/>
<path d="M250.067 239.914H269.941V239.764H250.067V239.914Z" fill="#ECECEC"/>
<path d="M193.517 241.542H198.732V241.392H193.517V241.542Z" fill="#ECECEC"/>
<path d="M237.952 234.342H249.467V234.192H237.952V234.342Z" fill="#ECECEC"/>
<path d="M31.4756 235.35H57.3914V235.2H31.4756V235.35Z" fill="#ECECEC"/>
<path d="M62.7339 235.35H66.5337V235.2H62.7339V235.35Z" fill="#ECECEC"/>
<path d="M78.8823 237.883H135.088V237.733H78.8823V237.883Z" fill="#ECECEC"/>
<mask id="mask0_381_569" style="mask-type:luminance" maskUnits="userSpaceOnUse" x="0" y="0" width="300" height="301">
<path d="M0 0.666736H300V300.667H0V0.666736Z" fill="white"/>
</mask>
<g mask="url(#mask0_381_569)">
<path d="M26.3491 33.7882C24.5431 33.7882 23.0743 35.257 23.0743 37.063V199.922C23.0743 201.728 24.5431 203.196 26.3491 203.196H142.209C144.013 203.196 145.483 201.728 145.483 199.922V37.063C145.483 35.257 144.013 33.7882 142.209 33.7882H26.3491ZM142.209 203.346H26.3491C24.4609 203.346 22.9243 201.81 22.9243 199.922V37.063C22.9243 35.1748 24.4609 33.6382 26.3491 33.6382H142.209C144.096 33.6382 145.633 35.1748 145.633 37.063V199.922C145.633 201.81 144.096 203.346 142.209 203.346Z" fill="#ECECEC"/>
<path d="M156.127 33.7882C154.321 33.7882 152.853 35.257 152.853 37.063V199.922C152.853 201.728 154.321 203.196 156.127 203.196H271.986C273.792 203.196 275.261 201.728 275.261 199.922V37.063C275.261 35.257 273.792 33.7882 271.986 33.7882H156.127ZM271.986 203.346H156.127C154.239 203.346 152.703 201.81 152.703 199.922V37.063C152.703 35.1748 154.239 33.6382 156.127 33.6382H271.986C273.874 33.6382 275.411 35.1748 275.411 37.063V199.922C275.411 201.81 273.874 203.346 271.986 203.346Z" fill="#ECECEC"/>
<path d="M173.815 105.102H256.484V50.9653H173.815V105.102Z" fill="#E7E7E7"/>
<path d="M171.292 105.102H255.305V50.9653H171.292V105.102Z" fill="#F0F0F0"/>
<path d="M173.815 105.102H256.484V115.726H173.815V105.102Z" fill="#E7E7E7"/>
<path d="M167.09 105.102H251.102V115.726H167.09V105.102Z" fill="#F0F0F0"/>
<path d="M251.773 54.497H174.824V101.571H251.773V54.497Z" fill="#FAFAFA"/>
<path d="M234.422 101.571L224.593 54.4977H209.256L219.085 101.571H234.422Z" fill="white"/>
<path d="M250.138 98.0559C250.277 98.0559 250.39 97.9431 250.39 97.8039V56.7945C250.39 56.6553 250.277 56.5425 250.138 56.5425C249.999 56.5425 249.886 56.6553 249.886 56.7945V97.8039C249.886 97.9431 249.999 98.0559 250.138 98.0559Z" fill="#F0F0F0"/>
<path d="M215.79 101.571L205.961 54.4977H199.982L209.811 101.571H215.79Z" fill="white"/>
<path d="M175.272 54.497H174.824V101.571H175.272V54.497Z" fill="#E7E7E7"/>
<mask id="mask1_381_569" style="mask-type:luminance" maskUnits="userSpaceOnUse" x="170" y="55" width="84" height="5">
<path d="M170.457 55.8699H253.45V59.8215H170.457V55.8699Z" fill="white"/>
</mask>
<g mask="url(#mask1_381_569)">
<g opacity="0.600006">
<path d="M170.457 59.8215H253.125L253.45 55.8699H170.782L170.457 59.8215Z" fill="#ECECEC"/>
</g>
</g>
<mask id="mask2_381_569" style="mask-type:luminance" maskUnits="userSpaceOnUse" x="170" y="62" width="84" height="5">
<path d="M170.457 62.3509H253.45V66.3025H170.457V62.3509Z" fill="white"/>
</mask>
<g mask="url(#mask2_381_569)">
<g opacity="0.600006">
<path d="M170.457 66.303H253.125L253.45 62.3514H170.782L170.457 66.303Z" fill="#ECECEC"/>
</g>
</g>
<mask id="mask3_381_569" style="mask-type:luminance" maskUnits="userSpaceOnUse" x="170" y="68" width="84" height="5">
<path d="M170.457 68.8321H253.45V72.7837H170.457V68.8321Z" fill="white"/>
</mask>
<g mask="url(#mask3_381_569)">
<g opacity="0.600006">
<path d="M170.457 72.7844H253.125L253.45 68.8328H170.782L170.457 72.7844Z" fill="#ECECEC"/>
</g>
</g>
<mask id="mask4_381_569" style="mask-type:luminance" maskUnits="userSpaceOnUse" x="170" y="75" width="84" height="5">
<path d="M170.457 75.3133H253.45V79.2649H170.457V75.3133Z" fill="white"/>
</mask>
<g mask="url(#mask4_381_569)">
<g opacity="0.600006">
<path d="M170.457 79.2654H253.126L253.451 75.3138H170.782L170.457 79.2654Z" fill="#ECECEC"/>
</g>
</g>
<mask id="mask5_381_569" style="mask-type:luminance" maskUnits="userSpaceOnUse" x="170" y="81" width="84" height="5">
<path d="M170.457 81.7945H253.45V85.7461H170.457V81.7945Z" fill="white"/>
</mask>
<g mask="url(#mask5_381_569)">
<g opacity="0.600006">
<path d="M170.457 85.7461H253.125L253.45 81.7945H170.782L170.457 85.7461Z" fill="#ECECEC"/>
</g>
</g>
<mask id="mask6_381_569" style="mask-type:luminance" maskUnits="userSpaceOnUse" x="170" y="88" width="84" height="5">
<path d="M170.457 88.2759H253.45V92.2275H170.457V88.2759Z" fill="white"/>
</mask>
<g mask="url(#mask6_381_569)">
<g opacity="0.600006">
<path d="M170.457 92.2275H253.125L253.45 88.2759H170.782L170.457 92.2275Z" fill="#ECECEC"/>
</g>
</g>
<path d="M244.613 194.153H227.279V190.735H244.613V194.153Z" fill="#E7E7E7"/>
<path d="M194.585 230.105H197.785V151.466H194.585V230.105Z" fill="#E7E7E7"/>
<path d="M183.501 194.153H227.279V190.735H183.501V194.153Z" fill="#F5F5F5"/>
<path d="M244.613 212.853H227.279V209.435H244.613V212.853Z" fill="#E7E7E7"/>
<path d="M183.501 212.853H227.279V209.435H183.501V212.853Z" fill="#F5F5F5"/>
<path d="M244.613 156.753H227.279V153.336H244.613V156.753Z" fill="#E7E7E7"/>
<path d="M183.501 156.753H227.279V153.336H183.501V156.753Z" fill="#F5F5F5"/>
<path d="M244.613 175.453H227.279V172.035H244.613V175.453Z" fill="#E7E7E7"/>
<path d="M183.501 175.453H227.279V172.035H183.501V175.453Z" fill="#F5F5F5"/>
<path d="M238.363 230.105H241.563V151.466H238.363V230.105Z" fill="#E7E7E7"/>
<path d="M224.08 230.105H227.279V151.466H224.08V230.105Z" fill="#F5F5F5"/>
<path d="M183.501 230.105H186.701V151.466H183.501V230.105Z" fill="#F5F5F5"/>
<path d="M39.2246 230.106H71.9714V166.571H39.2246V230.106Z" fill="#E7E7E7"/>
<path d="M47.969 230.106H39.2246V221.335H57.1376L47.969 230.106Z" fill="#FAFAFA"/>
<path d="M128.511 230.106H161.258V166.571H128.511V230.106Z" fill="#E7E7E7"/>
<path d="M39.2246 227.088H136.142V166.571H39.2246V227.088Z" fill="#FAFAFA"/>
<path d="M127.398 230.106H136.142V221.335H118.229L127.398 230.106Z" fill="#FAFAFA"/>
<path d="M46.0083 204.266H129.359V189.122H46.0083V204.266Z" fill="#F0F0F0"/>
<path d="M46.0083 222.647H129.359V207.502H46.0083V222.647Z" fill="#F0F0F0"/>
<path d="M61.8506 190.74H113.515C115.032 190.74 116.262 189.511 116.262 187.995V187.809H59.105V187.995C59.105 189.511 60.3344 190.74 61.8506 190.74Z" fill="#FAFAFA"/>
<path d="M46.0083 185.884H129.359V170.74H46.0083V185.884Z" fill="#F0F0F0"/>
<path d="M61.8506 172.359H113.515C115.032 172.359 116.262 171.13 116.262 169.614V169.428H59.105V169.614C59.105 171.13 60.3344 172.359 61.8506 172.359Z" fill="#FAFAFA"/>
<path d="M61.8506 209.122H113.515C115.032 209.122 116.262 207.893 116.262 206.376V206.191H59.105V206.376C59.105 207.893 60.3344 209.122 61.8506 209.122Z" fill="#FAFAFA"/>
<path d="M44.4409 105.102H127.11V50.9653H44.4409V105.102Z" fill="#E7E7E7"/>
<path d="M41.9185 105.102H125.93V50.9653H41.9185V105.102Z" fill="#F0F0F0"/>
<path d="M44.4409 105.102H127.11V115.726H44.4409V105.102Z" fill="#E7E7E7"/>
<path d="M37.7163 105.102H121.729V115.726H37.7163V105.102Z" fill="#F0F0F0"/>
<path d="M122.4 54.497H45.4502V101.571H122.4V54.497Z" fill="#FAFAFA"/>
<path d="M105.048 101.571L95.2194 54.4977H79.8828L89.7114 101.571H105.048Z" fill="white"/>
<path d="M120.765 98.0559C120.904 98.0559 121.017 97.9431 121.017 97.8039V56.7945C121.017 56.6553 120.904 56.5425 120.765 56.5425C120.625 56.5425 120.513 56.6553 120.513 56.7945V97.8039C120.513 97.9431 120.625 98.0559 120.765 98.0559Z" fill="#F0F0F0"/>
<path d="M86.417 101.571L76.5884 54.4977H70.6094L80.438 101.571H86.417Z" fill="white"/>
<path d="M45.8984 54.497H45.4502V101.571H45.8984V54.497Z" fill="#E7E7E7"/>
<mask id="mask7_381_569" style="mask-type:luminance" maskUnits="userSpaceOnUse" x="41" y="55" width="84" height="5">
<path d="M41.0835 55.8699H124.077V59.8215H41.0835V55.8699Z" fill="white"/>
</mask>
<g mask="url(#mask7_381_569)">
<g opacity="0.600006">
<path d="M41.0835 59.8215H123.752L124.077 55.8699H41.4087L41.0835 59.8215Z" fill="#ECECEC"/>
</g>
</g>
<mask id="mask8_381_569" style="mask-type:luminance" maskUnits="userSpaceOnUse" x="41" y="58" width="84" height="5">
<path d="M41.0835 58.0988H124.077V62.051H41.0835V58.0988Z" fill="white"/>
</mask>
<g mask="url(#mask8_381_569)">
<g opacity="0.600006">
<path d="M41.0835 62.0508H123.752L124.077 58.0992H41.4087L41.0835 62.0508Z" fill="#ECECEC"/>
</g>
</g>
<mask id="mask9_381_569" style="mask-type:luminance" maskUnits="userSpaceOnUse" x="41" y="60" width="84" height="5">
<path d="M41.0835 60.3284H124.077V64.28H41.0835V60.3284Z" fill="white"/>
</mask>
<g mask="url(#mask9_381_569)">
<g opacity="0.600006">
<path d="M41.0835 64.2803H123.752L124.077 60.3287H41.4087L41.0835 64.2803Z" fill="#ECECEC"/>
</g>
</g>
<mask id="mask10_381_569" style="mask-type:luminance" maskUnits="userSpaceOnUse" x="41" y="62" width="84" height="5">
<path d="M41.0835 62.5573H124.077V66.5095H41.0835V62.5573Z" fill="white"/>
</mask>
<g mask="url(#mask10_381_569)">
<g opacity="0.600006">
<path d="M41.0835 66.5093H123.752L124.077 62.5577H41.4087L41.0835 66.5093Z" fill="#ECECEC"/>
</g>
</g>
<mask id="mask11_381_569" style="mask-type:luminance" maskUnits="userSpaceOnUse" x="41" y="64" width="84" height="5">
<path d="M41.0835 64.7867H124.077V68.7383H41.0835V64.7867Z" fill="white"/>
</mask>
<g mask="url(#mask11_381_569)">
<g opacity="0.600006">
<path d="M41.0835 68.7383H123.752L124.077 64.7867H41.4087L41.0835 68.7383Z" fill="#ECECEC"/>
</g>
</g>
<mask id="mask12_381_569" style="mask-type:luminance" maskUnits="userSpaceOnUse" x="41" y="67" width="84" height="4">
<path d="M41.0835 67.0159H124.077V70.9675H41.0835V67.0159Z" fill="white"/>
</mask>
<g mask="url(#mask12_381_569)">
<g opacity="0.600006">
<path d="M41.0835 70.9678H123.752L124.077 67.0162H41.4087L41.0835 70.9678Z" fill="#ECECEC"/>
</g>
</g>
<path d="M57.6074 164.629H60.4652V132.774H57.6074V164.629Z" fill="#F5F5F5"/>
<path d="M57.9766 164.607H58.7836V132.752H57.9766V164.607Z" fill="#FAFAFA"/>
<path d="M59.1216 164.607H59.4378V132.752H59.1216V164.607Z" fill="#FAFAFA"/>
<path d="M48.4575 166.571H69.6159C69.6159 165.099 68.4225 163.905 66.9501 163.905H51.1233C49.6509 163.905 48.4575 165.099 48.4575 166.571Z" fill="#F0F0F0"/>
<path d="M53.9011 152.55C54.3535 152.55 54.7231 152.18 54.7231 151.728V130.842C54.7231 130.39 54.3535 130.02 53.9011 130.02C53.4487 130.02 53.0791 130.39 53.0791 130.842V151.728C53.0791 152.18 53.4487 152.55 53.9011 152.55Z" fill="#F0F0F0"/>
<path d="M46.2437 140.346H71.8295L68.8859 122.467H49.1867L46.2437 140.346Z" fill="#E1E1E1"/>
</g>
<mask id="mask13_381_569" style="mask-type:luminance" maskUnits="userSpaceOnUse" x="0" y="0" width="300" height="301">
<path d="M0 0.666736H300V300.667H0V0.666736Z" fill="white"/>
</mask>
<g mask="url(#mask13_381_569)">
<path d="M144.281 76.9254C173.141 80.1522 185.81 55.1328 214.41 58.4094C239.936 61.3338 257.535 79.5198 251.579 104.013C246.291 125.755 221.096 132.58 212.137 152.947C202.641 174.538 195.275 197.823 166.596 205.339C110.283 220.097 82.9305 150.809 79.0989 111.013C77.6283 95.7366 75.0615 59.2164 95.0019 54.4842C115.072 49.7208 126.578 74.946 144.281 76.9254Z" fill="#043B50"/>
<mask id="mask14_381_569" style="mask-type:luminance" maskUnits="userSpaceOnUse" x="78" y="53" width="175" height="155">
<path d="M78.1167 53.8866H252.742V207.367H78.1167V53.8866Z" fill="white"/>
</mask>
<g mask="url(#mask14_381_569)">
<g opacity="0.899994">
<path d="M144.281 76.9254C173.141 80.1522 185.81 55.1328 214.41 58.4094C239.936 61.3338 257.535 79.5198 251.579 104.013C246.291 125.755 221.096 132.58 212.137 152.947C202.641 174.538 195.275 197.823 166.596 205.339C110.283 220.097 82.9305 150.809 79.0989 111.013C77.6283 95.7366 75.0615 59.2164 95.0019 54.4842C115.072 49.7208 126.578 74.946 144.281 76.9254Z" fill="white"/>
</g>
</g>
</g>
<mask id="mask15_381_569" style="mask-type:luminance" maskUnits="userSpaceOnUse" x="0" y="0" width="300" height="301">
<path d="M0 0.666736H300V300.667H0V0.666736Z" fill="white"/>
</mask>
<g mask="url(#mask15_381_569)">
<path d="M266.334 250.409C266.334 254.162 214.25 257.203 150 257.203C85.7512 257.203 33.667 254.162 33.667 250.409C33.667 246.658 85.7512 243.616 150 243.616C214.25 243.616 266.334 246.658 266.334 250.409Z" fill="#F5F5F5"/>
</g>
<path d="M62.6684 133.19L61.8716 122.125L62.4698 122.083L63.2672 133.147L62.6684 133.19Z" fill="#007CFF"/>
<path d="M63.3796 143.067L63.0796 138.905L63.6784 138.861L63.9784 143.024L63.3796 143.067Z" fill="#007CFF"/>
<mask id="mask16_381_569" style="mask-type:luminance" maskUnits="userSpaceOnUse" x="0" y="0" width="300" height="301">
<path d="M0 0.666736H300V300.667H0V0.666736Z" fill="white"/>
</mask>
<g mask="url(#mask16_381_569)">
<path d="M202.626 189.763H74.1317C71.2259 189.763 68.6765 187.386 68.4671 184.479L62.1539 96.8012C61.9445 93.8954 64.1513 91.5176 67.0571 91.5176H195.552C198.458 91.5176 201.007 93.8954 201.216 96.8012L207.53 184.479C207.74 187.386 205.533 189.763 202.626 189.763Z" fill="#2C8073"/>
<path d="M203.119 189.763H74.6244C71.7186 189.763 69.1692 187.386 68.9598 184.479L62.6466 96.8012C62.4372 93.8954 64.644 91.5176 67.5498 91.5176H196.045C198.951 91.5176 201.5 93.8954 201.709 96.8012L208.023 184.479C208.232 187.386 206.026 189.763 203.119 189.763Z" fill="#2C8073"/>
<mask id="mask17_381_569" style="mask-type:luminance" maskUnits="userSpaceOnUse" x="62" y="91" width="147" height="99">
<path d="M62.6328 91.5176H208.037V189.763H62.6328V91.5176Z" fill="white"/>
</mask>
<g mask="url(#mask17_381_569)">
<g opacity="0.5">
<path d="M203.119 189.763H74.6244C71.7186 189.763 69.1692 187.385 68.9598 184.479L62.6466 96.801C62.4372 93.8952 64.644 91.5174 67.5498 91.5174H196.045C198.951 91.5174 201.5 93.8952 201.709 96.801L208.023 184.479C208.232 187.385 206.026 189.763 203.119 189.763Z" fill="white"/>
</g>
</g>
<path d="M196.235 94.1594H67.7398C67.5946 94.1594 67.4512 94.1654 67.3096 94.1768C64.0246 94.4474 64.696 99.4436 68.011 99.4436H196.725C200.04 99.4436 199.991 94.4474 196.668 94.1768C196.524 94.1654 196.38 94.1594 196.235 94.1594Z" fill="#2C8073"/>
<path d="M71.0866 96.8015C71.1346 97.4705 70.6312 98.0129 69.9622 98.0129C69.2932 98.0129 68.7118 97.4705 68.6638 96.8015C68.6158 96.1325 69.1192 95.5901 69.7882 95.5901C70.4572 95.5901 71.0386 96.1325 71.0866 96.8015Z" fill="#FAFAFA"/>
<path d="M75.2072 96.8015C75.2552 97.4705 74.7518 98.0129 74.0828 98.0129C73.4138 98.0129 72.8324 97.4705 72.7844 96.8015C72.7364 96.1325 73.2392 95.5901 73.9088 95.5901C74.5778 95.5901 75.1592 96.1325 75.2072 96.8015Z" fill="#FAFAFA"/>
<path d="M79.3283 96.8015C79.3763 97.4705 78.8729 98.0129 78.2039 98.0129C77.5349 98.0129 76.9535 97.4705 76.9055 96.8015C76.8575 96.1325 77.3603 95.5901 78.0299 95.5901C78.6989 95.5901 79.2803 96.1325 79.3283 96.8015Z" fill="#FAFAFA"/>
<path d="M199.712 181.013H76.7707C75.7129 181.013 74.7931 180.155 74.7169 179.097L69.5251 106.994C69.4489 105.935 70.2451 105.078 71.3029 105.078H194.245C195.302 105.078 196.222 105.935 196.298 106.994L201.49 179.097C201.566 180.155 200.77 181.013 199.712 181.013Z" fill="white"/>
<path d="M147.918 153.545L145.917 125.754L139.852 122.104H123.169L125.434 153.545H147.918Z" fill="white"/>
<path d="M125.704 153.255H147.605L145.637 125.925L139.771 122.395H123.482L125.704 153.255ZM147.918 153.836H125.434C125.281 153.836 125.155 153.719 125.144 153.567L122.88 122.125C122.874 122.045 122.902 121.965 122.957 121.906C123.012 121.847 123.089 121.813 123.17 121.813H139.852C139.905 121.813 139.957 121.828 140.002 121.855L146.067 125.505C146.148 125.554 146.2 125.639 146.206 125.733L148.208 153.525C148.213 153.605 148.186 153.684 148.131 153.744C148.075 153.803 147.999 153.836 147.918 153.836Z" fill="#2C8073"/>
<path d="M145.917 125.754L139.853 122.104L142.079 126.94L145.917 125.754Z" fill="#ECECEC"/>
<path d="M140.511 122.84L142.236 126.586L145.21 125.668L140.511 122.84ZM142.079 127.23C141.968 127.23 141.863 127.167 141.814 127.061L139.588 122.226C139.535 122.11 139.563 121.972 139.658 121.887C139.753 121.803 139.893 121.789 140.002 121.855L146.066 125.505C146.164 125.564 146.219 125.676 146.205 125.79C146.191 125.903 146.111 125.998 146.002 126.032L142.165 127.218C142.136 127.226 142.107 127.23 142.079 127.23Z" fill="#2C8073"/>
<path d="M132.581 136.27C132.632 136.972 132.104 137.541 131.402 137.541C130.701 137.541 130.091 136.972 130.041 136.27C129.991 135.569 130.518 135 131.22 135C131.921 135 132.531 135.569 132.581 136.27Z" fill="#2C8073"/>
<path d="M140.823 136.27C140.873 136.972 140.346 137.541 139.644 137.541C138.943 137.541 138.333 136.972 138.283 136.27C138.232 135.569 138.76 135 139.462 135C140.163 135 140.773 135.569 140.823 136.27Z" fill="#2C8073"/>
<path d="M143.148 144.508C142.997 144.508 142.87 144.391 142.858 144.238C142.711 142.195 139.508 140.534 135.718 140.534C133.207 140.534 130.953 141.281 129.835 142.483C129.337 143.017 129.107 143.593 129.151 144.196C129.162 144.357 129.042 144.495 128.882 144.507C128.721 144.517 128.582 144.398 128.57 144.238C128.516 143.479 128.806 142.735 129.409 142.087C130.634 140.77 133.051 139.953 135.718 139.953C139.876 139.953 143.267 141.817 143.438 144.196C143.45 144.357 143.329 144.495 143.169 144.507C143.162 144.508 143.155 144.508 143.148 144.508Z" fill="#2C8073"/>
<path d="M127.9 133.697C127.829 133.697 127.759 133.671 127.702 133.619C127.585 133.509 127.578 133.326 127.687 133.208L128.961 131.835C129.071 131.717 129.255 131.711 129.372 131.82C129.49 131.929 129.497 132.113 129.388 132.231L128.113 133.604C128.056 133.665 127.978 133.697 127.9 133.697Z" fill="#2C8073"/>
<path d="M142.551 133.697C142.48 133.697 142.408 133.671 142.352 133.619L140.88 132.246C140.763 132.136 140.757 131.952 140.866 131.835C140.976 131.717 141.159 131.711 141.277 131.82L142.749 133.193C142.866 133.303 142.873 133.487 142.763 133.604C142.706 133.665 142.629 133.697 142.551 133.697Z" fill="#2C8073"/>
<path d="M121.354 159.758H122.71L124.667 162.359L124.48 159.758H125.849L126.187 164.458H124.818L122.872 161.878L123.058 164.458H121.693L121.354 159.758Z" fill="#2C8073"/>
<path d="M128.253 162.118C128.287 162.592 128.4 162.933 128.591 163.14C128.782 163.348 129.03 163.451 129.333 163.451C129.645 163.451 129.879 163.349 130.035 163.147C130.192 162.943 130.251 162.579 130.214 162.053C130.181 161.611 130.069 161.288 129.876 161.084C129.683 160.88 129.433 160.778 129.128 160.778C128.835 160.778 128.607 160.881 128.445 161.089C128.282 161.296 128.219 161.639 128.253 162.118ZM126.8 162.111C126.745 161.344 126.915 160.747 127.312 160.319C127.709 159.892 128.289 159.678 129.051 159.678C129.834 159.678 130.452 159.888 130.905 160.308C131.358 160.728 131.612 161.316 131.667 162.073C131.706 162.622 131.646 163.072 131.487 163.424C131.327 163.775 131.08 164.049 130.745 164.245C130.409 164.44 129.981 164.538 129.459 164.538C128.93 164.538 128.484 164.453 128.125 164.285C127.766 164.116 127.465 163.849 127.223 163.483C126.981 163.118 126.84 162.661 126.8 162.111Z" fill="#2C8073"/>
<path d="M136.02 160.823L136.205 163.391H136.561C136.864 163.391 137.078 163.357 137.201 163.289C137.324 163.222 137.416 163.104 137.477 162.937C137.537 162.769 137.554 162.497 137.527 162.121C137.491 161.623 137.386 161.282 137.21 161.098C137.034 160.914 136.759 160.823 136.382 160.823H136.02ZM134.491 159.758H136.649C137.074 159.758 137.422 159.816 137.692 159.932C137.962 160.047 138.19 160.212 138.377 160.428C138.563 160.644 138.705 160.895 138.803 161.181C138.901 161.468 138.961 161.772 138.984 162.092C139.02 162.594 138.991 162.984 138.896 163.26C138.802 163.538 138.66 163.769 138.47 163.956C138.281 164.143 138.072 164.268 137.843 164.33C137.531 164.415 137.246 164.458 136.987 164.458H134.83L134.491 159.758Z" fill="#2C8073"/>
<path d="M142.094 162.666L141.454 160.976L141.062 162.666H142.094ZM142.469 163.682H140.82L140.647 164.458H139.164L140.592 159.758H142.176L144.28 164.458H142.76L142.469 163.682Z" fill="#2C8073"/>
<path d="M143.621 159.758H148.035L148.119 160.919H146.638L146.893 164.458H145.44L145.186 160.919H143.704L143.621 159.758Z" fill="#2C8073"/>
<path d="M151.045 162.666L150.404 160.976L150.013 162.666H151.045ZM151.419 163.682H149.77L149.597 164.458H148.114L149.542 159.758H151.126L153.23 164.458H151.71L151.419 163.682Z" fill="#2C8073"/>
</g>
<mask id="mask18_381_569" style="mask-type:luminance" maskUnits="userSpaceOnUse" x="0" y="0" width="300" height="301">
<path d="M0 0.666754H300V300.667H0V0.666754Z" fill="white"/>
</mask>
<g mask="url(#mask18_381_569)">
<path d="M212.212 104.515C212.749 104.246 213.388 103.899 213.979 103.574C214.581 103.243 215.179 102.898 215.769 102.54C216.945 101.816 218.129 101.101 219.254 100.306C221.523 98.7429 223.649 97.0089 225.562 95.1147C225.812 94.8855 226.025 94.6311 226.257 94.3893L226.599 94.0215L226.771 93.8385L226.857 93.7461C226.879 93.7221 226.874 93.7275 226.863 93.7413L226.844 93.7707C226.758 93.9303 226.83 93.8823 226.863 93.7275C226.903 93.5787 226.936 93.3357 226.947 93.0729C226.986 91.9833 226.77 90.6099 226.51 89.2821C225.975 86.5905 225.167 83.8233 224.367 81.1113L226.699 80.0889C228.159 82.6965 229.376 85.3599 230.366 88.2477C230.838 89.7099 231.271 91.1787 231.397 92.9835C231.421 93.4431 231.431 93.9261 231.348 94.4901C231.26 95.0439 231.12 95.7075 230.614 96.4599L230.514 96.5985L230.437 96.6993L230.344 96.8121L230.16 97.0365L229.789 97.4865C229.539 97.7823 229.302 98.0955 229.036 98.3727C226.966 100.67 224.665 102.699 222.208 104.464C220.986 105.357 219.736 106.206 218.438 106.978C217.792 107.369 217.137 107.745 216.472 108.109C215.798 108.484 215.157 108.81 214.392 109.168L212.212 104.515Z" fill="#FFB670"/>
<path d="M207.866 245.224C206.992 245.399 206.333 245.368 206.079 245.136C205.971 245.037 205.931 244.899 205.957 244.713C205.971 244.613 206.018 244.58 206.056 244.562C206.365 244.423 207.244 244.848 207.866 245.224ZM206.876 245.574C207.341 245.574 207.848 245.478 208.204 245.394C208.25 245.383 208.285 245.346 208.293 245.299C208.301 245.252 208.281 245.205 208.241 245.179C208.069 245.066 206.543 244.08 205.958 244.345C205.866 244.387 205.75 244.479 205.721 244.68C205.684 244.946 205.75 245.159 205.919 245.312C206.133 245.508 206.49 245.574 206.876 245.574Z" fill="#2C8073"/>
<path d="M207.32 243.36C207.418 243.36 207.505 243.394 207.584 243.464C207.91 243.753 208.022 244.565 208.049 245.047C207.571 244.665 207.001 243.851 207.07 243.506C207.082 243.449 207.114 243.382 207.266 243.363C207.285 243.361 207.303 243.36 207.32 243.36ZM208.175 245.397C208.196 245.397 208.217 245.391 208.235 245.381C208.272 245.36 208.295 245.321 208.295 245.278C208.295 245.217 208.288 243.77 207.742 243.286C207.596 243.158 207.427 243.104 207.238 243.127C206.939 243.163 206.858 243.35 206.837 243.459C206.723 244.025 207.637 245.11 208.117 245.382C208.135 245.392 208.155 245.397 208.175 245.397Z" fill="#2C8073"/>
<path d="M207.734 89.5068C207.15 92.4888 205.917 98.529 208.004 100.519C208.004 100.519 207.189 103.544 201.647 103.544C195.554 103.544 198.735 100.519 198.735 100.519C202.061 99.7254 201.975 97.2582 201.396 94.941L207.734 89.5068Z" fill="#FFB670"/>
<path d="M197.571 101.721C196.614 101.851 197.428 99.373 197.817 99.1168C198.714 98.5234 210.327 97.6828 210.252 99.0922C210.204 99.6988 209.919 100.883 209.411 101.285C208.903 101.687 205.92 100.472 197.571 101.721Z" fill="#1A2E35"/>
<path d="M199.463 100.887C198.703 101.144 198.775 98.6475 199.034 98.3469C199.632 97.6521 209.032 95.2371 209.312 96.6039C209.419 97.1937 209.471 98.3721 209.148 98.8293C208.826 99.2865 206.064 98.5299 199.463 100.887Z" fill="#1A2E35"/>
<path d="M195.966 84.1314C195.893 84.1356 195.818 84.1062 195.768 84.0444C195.096 83.2224 194.222 83.3064 194.214 83.3076C194.081 83.3214 193.965 83.2272 193.952 83.0964C193.937 82.9662 194.032 82.8486 194.163 82.8342C194.208 82.8294 195.303 82.7232 196.137 83.7432C196.22 83.8446 196.205 83.9946 196.103 84.078C196.062 84.111 196.014 84.1284 195.966 84.1314Z" fill="#1A2E35"/>
<path d="M194.803 87.0674C194.803 87.0674 194.29 88.8716 193.618 89.7836C194.2 90.2282 195.083 89.912 195.083 89.912L194.803 87.0674Z" fill="#FF5551"/>
<path d="M195.096 86.3388C195.136 86.742 194.954 87.09 194.691 87.1164C194.427 87.1422 194.181 86.8362 194.141 86.433C194.102 86.0292 194.283 85.6812 194.547 85.6554C194.811 85.6296 195.057 85.9356 195.096 86.3388Z" fill="#1A2E35"/>
<path d="M194.666 85.6661L193.669 85.4819C193.669 85.4819 194.241 86.1899 194.666 85.6661Z" fill="#1A2E35"/>
<path d="M214.02 245.278H208.995L209.389 233.639H214.414L214.02 245.278Z" fill="#FFB670"/>
<path d="M208.596 244.696H214.242C214.448 244.696 214.615 244.839 214.644 245.039L215.287 249.507C215.353 249.97 214.955 250.409 214.481 250.4C212.512 250.366 211.564 250.251 209.081 250.251C207.553 250.251 205.321 250.409 203.212 250.409C201.149 250.409 200.99 248.324 201.868 248.135C205.807 247.287 206.429 246.119 207.756 245.005C207.996 244.804 208.296 244.696 208.596 244.696Z" fill="#1A2E35"/>
<mask id="mask19_381_569" style="mask-type:luminance" maskUnits="userSpaceOnUse" x="209" y="233" width="6" height="7">
<path d="M209.187 233.643H214.415V239.642H209.187V233.643Z" fill="white"/>
</mask>
<g mask="url(#mask19_381_569)">
<g opacity="0.199997">
<path d="M214.415 233.643H209.387L209.187 239.642H214.214L214.415 233.643Z" fill="black"/>
</g>
</g>
<path d="M194.024 107.493C190.914 106.276 187.948 104.952 184.994 103.441C182.045 101.931 179.142 100.324 176.352 98.1764C175.657 97.6298 174.97 97.0322 174.298 96.3344C174.131 96.1544 173.964 95.9876 173.799 95.7812C173.626 95.564 173.496 95.4362 173.272 95.1026C172.866 94.5194 172.553 93.7364 172.469 92.9372C172.39 92.1374 172.534 91.3736 172.764 90.7652C172.993 90.1454 173.294 89.6396 173.608 89.2004C174.238 88.322 174.937 87.6728 175.641 87.0884C177.048 85.925 178.534 85.079 180.024 84.2888C180.768 83.8934 181.525 83.5376 182.294 83.21C183.065 82.877 183.819 82.568 184.637 82.286L185.703 84.5978C183.085 86.2472 180.374 88.0598 178.381 90.0932C177.898 90.5966 177.474 91.1234 177.207 91.5872C176.922 92.0594 176.925 92.4134 176.974 92.3858C176.998 92.3852 176.989 92.375 177.058 92.444L177.297 92.7008C177.387 92.8076 177.514 92.918 177.627 93.0278C178.098 93.4682 178.65 93.9092 179.247 94.3292C180.438 95.177 181.75 95.9702 183.107 96.7112C184.459 97.4624 185.85 98.1812 187.268 98.8628C190.095 100.217 193.027 101.52 195.903 102.711L194.024 107.493Z" fill="#FFB670"/>
<path d="M187.181 82.9592L188.012 81.1568L184.234 79.8452C184.234 79.8452 183.058 83.3864 184.46 85.0208C185.654 84.8306 186.675 84.0572 187.181 82.9592Z" fill="#FFB670"/>
<path d="M188.013 77.2601L184.993 76.3895L184.235 79.8449L188.013 81.1565V77.2601Z" fill="#FFB670"/>
<path d="M227.01 81.3314L227.45 77.1194L223.557 78.0344C223.557 78.0344 223.5 81.9824 225.559 82.6118L227.01 81.3314Z" fill="#FFB670"/>
<path d="M225.575 74.171L223.039 75.3554L223.557 78.0344L227.45 77.1194L225.575 74.171Z" fill="#FFB670"/>
<path d="M208.524 83.6197C208.707 88.6045 208.892 90.7099 206.639 93.4993C203.251 97.6945 197.089 96.8299 195.42 92.0005C193.919 87.6535 193.871 80.2321 198.527 77.7835C203.114 75.3709 208.341 78.6349 208.524 83.6197Z" fill="#FFB670"/>
<path d="M206.353 93.4901C211.246 91.3757 214.464 86.9171 213.106 79.9457C211.805 73.2761 207.303 72.6167 205.443 74.0009C203.583 75.3845 198.947 73.3223 196.165 75.6635C191.344 79.7201 195.902 84.0935 198.275 86.6849C199.693 89.5997 201.551 95.5649 206.353 93.4901Z" fill="#1A2E35"/>
<path d="M204.32 78.7486C205.972 81.1396 209.138 81.8146 211.394 80.2564C213.65 78.6988 214.141 75.4978 212.489 73.1068C210.838 70.7164 207.671 70.0408 205.415 71.599C203.159 73.1566 202.669 76.3576 204.32 78.7486Z" fill="#2C8073"/>
<path d="M205.591 74.4682C204.885 70.4494 208.688 67.3504 213.773 68.848C218.857 70.3456 216.168 74.8534 215.125 78.4534C214.083 82.0534 216.819 85.4818 217.963 82.7404C219.106 79.999 217.184 79.1524 217.184 79.1524C217.184 79.1524 222.583 80.5522 217.567 86.6392C212.552 92.7256 208.011 86.005 209.239 82.0384C210.231 78.8326 206.259 78.2674 205.591 74.4682Z" fill="#1A2E35"/>
<path d="M200.51 75.9865C198.188 74.7751 194.257 73.7965 192.02 77.5603C190.962 79.3405 191.372 81.7537 191.372 81.7537L198.205 82.2085L200.51 75.9865Z" fill="#1A2E35"/>
<path d="M190.567 80.5732C190.564 80.5732 190.561 80.5732 190.558 80.5732C190.475 80.5678 190.412 80.4964 190.417 80.4142C190.424 80.3116 190.589 77.8978 192.046 76.384C195.567 72.7252 199.696 75.76 200.877 76.7776C200.94 76.8316 200.947 76.9264 200.893 76.9888C200.839 77.0518 200.744 77.0584 200.681 77.005C199.55 76.0312 195.601 73.123 192.262 76.5922C190.882 78.0256 190.718 80.4088 190.717 80.4328C190.712 80.512 190.646 80.5732 190.567 80.5732Z" fill="#1A2E35"/>
<path d="M199.112 86.4868C199.104 87.4577 198.669 88.4087 198.119 89.0531C197.289 90.0227 196.339 89.5451 196.121 88.4699C195.924 87.5021 196.119 85.8316 197.167 85.246C198.2 84.6688 199.12 85.3768 199.112 86.4868Z" fill="#FFB670"/>
<path d="M198.032 132.14C198.032 132.14 198.353 167.026 201.379 186.467C203.823 202.169 208.347 238.479 208.347 238.479H215.201C215.201 238.479 215.87 203.425 214.629 187.895C211.49 148.596 219.592 141.249 213.053 132.14H198.032Z" fill="#1A2E35"/>
<mask id="mask20_381_569" style="mask-type:luminance" maskUnits="userSpaceOnUse" x="198" y="132" width="18" height="107">
<path d="M198.032 132.14H215.684V238.48H198.032V132.14Z" fill="white"/>
</mask>
<g mask="url(#mask20_381_569)">
<g opacity="0.100006">
<path d="M198.032 132.14C198.032 132.14 198.353 167.026 201.379 186.467C203.823 202.169 208.347 238.479 208.347 238.479H215.201C215.201 238.479 215.87 203.425 214.629 187.895C211.49 148.596 219.592 141.249 213.053 132.14H198.032Z" fill="white"/>
</g>
</g>
<mask id="mask21_381_569" style="mask-type:luminance" maskUnits="userSpaceOnUse" x="198" y="144" width="5" height="39">
<path d="M198.364 144.995H202.782V182.383H198.364V144.995Z" fill="white"/>
</mask>
<g mask="url(#mask21_381_569)">
<g opacity="0.300003">
<path d="M201.634 147.967C204.04 158.497 202.12 175.081 200.806 182.383C199.414 171.295 198.712 156.925 198.364 146.395C199.606 144.379 200.782 144.247 201.634 147.967Z" fill="black"/>
</g>
</g>
<path d="M207.409 238.616H216.138L216.597 235.554L207.359 235.241L207.409 238.616Z" fill="#2C8073"/>
<path d="M209.9 102.692C210.721 101.059 215.135 100.032 217.548 100.035L219.354 108.054C219.354 108.054 214.547 115.188 212.548 114.432C210.186 113.54 208.141 106.19 209.9 102.692Z" fill="#2C8073"/>
<mask id="mask22_381_569" style="mask-type:luminance" maskUnits="userSpaceOnUse" x="209" y="100" width="11" height="15">
<path d="M209.238 100.036H219.354V114.488H209.238V100.036Z" fill="white"/>
</mask>
<g mask="url(#mask22_381_569)">
<g opacity="0.399994">
<path d="M209.9 102.692C210.721 101.059 215.135 100.032 217.548 100.036L219.354 108.055C219.354 108.055 214.547 115.189 212.548 114.432C210.186 113.54 208.141 106.19 209.9 102.692Z" fill="black"/>
</g>
</g>
<path d="M202.148 237.577C202.353 237.24 203.501 236.93 204.378 236.769C203.586 237.574 202.889 238.022 202.482 237.98C202.339 237.965 202.229 237.89 202.146 237.752C202.115 237.698 202.11 237.652 202.134 237.602C202.138 237.593 202.143 237.585 202.148 237.577ZM204.812 236.655C204.834 236.619 204.836 236.574 204.815 236.537C204.792 236.492 204.743 236.467 204.693 236.475C204.44 236.513 202.219 236.865 201.919 237.5C201.861 237.623 201.869 237.752 201.942 237.874C202.065 238.079 202.238 238.194 202.457 238.217C203.185 238.292 204.236 237.282 204.798 236.673C204.803 236.667 204.808 236.661 204.812 236.655Z" fill="#2C8073"/>
<path d="M202.462 235.899C202.481 235.868 202.511 235.833 202.557 235.791C202.692 235.67 202.849 235.617 203.037 235.63C203.576 235.665 204.188 236.223 204.467 236.506C203.755 236.566 202.603 236.35 202.447 236.041C202.438 236.023 202.415 235.977 202.462 235.899ZM204.811 236.655C204.816 236.647 204.82 236.639 204.823 236.631C204.836 236.591 204.828 236.547 204.8 236.515C204.763 236.471 203.872 235.446 203.052 235.392C202.801 235.375 202.581 235.45 202.398 235.614C202.152 235.834 202.173 236.026 202.234 236.149C202.495 236.664 204.091 236.843 204.734 236.709C204.766 236.702 204.795 236.682 204.811 236.655Z" fill="#2C8073"/>
<path d="M210.05 234.526L205.453 236.568L203.405 232.305L200.728 226.722L200.415 226.073L205.006 224.028L205.361 224.758L207.956 230.164L210.05 234.526Z" fill="#FFB670"/>
<mask id="mask23_381_569" style="mask-type:luminance" maskUnits="userSpaceOnUse" x="200" y="224" width="8" height="9">
<path d="M200.728 224.759H207.956V232.304H200.728V224.759Z" fill="white"/>
</mask>
<g mask="url(#mask23_381_569)">
<g opacity="0.199997">
<path d="M207.956 230.164L203.405 232.305L200.728 226.722L205.361 224.758L207.956 230.164Z" fill="black"/>
</g>
</g>
<path d="M192.642 132.14C192.642 132.14 177.958 168.641 181.938 185.829C185.535 201.363 201.441 230.782 201.441 230.782L207.59 227.695C207.59 227.695 197.757 192.182 196.69 184.467C194.616 169.456 207.956 148.267 207.956 132.14H192.642Z" fill="#1A2E35"/>
<mask id="mask24_381_569" style="mask-type:luminance" maskUnits="userSpaceOnUse" x="181" y="132" width="27" height="99">
<path d="M181.254 132.14H207.956V230.782H181.254V132.14Z" fill="white"/>
</mask>
<g mask="url(#mask24_381_569)">
<g opacity="0.100006">
<path d="M192.642 132.14C192.642 132.14 177.958 168.641 181.938 185.829C185.535 201.363 201.441 230.782 201.441 230.782L207.59 227.695C207.59 227.695 197.757 192.182 196.69 184.467C194.616 169.456 207.956 148.267 207.956 132.14H192.642Z" fill="white"/>
</g>
</g>
<path d="M204.633 235.929L209.199 232.606C209.364 232.486 209.583 232.502 209.725 232.648L212.874 235.881C213.2 236.216 213.136 236.806 212.748 237.078C211.137 238.209 210.301 238.673 208.294 240.135C207.059 241.034 204.598 243.022 202.892 244.263C201.224 245.477 199.868 243.884 200.467 243.214C203.153 240.212 203.719 238.355 204.136 236.673C204.211 236.37 204.39 236.106 204.633 235.929Z" fill="#1A2E35"/>
<path d="M201.044 232.083L208.982 228.452L207.963 225.217L199.463 229.095L201.044 232.083Z" fill="#2C8073"/>
<path d="M196.538 102.283C195.879 100.578 190.144 98.7088 187.267 98.056L186.002 107.517C186.002 107.517 190.701 114.27 192.764 113.711C195.201 113.052 197.949 105.935 196.538 102.283Z" fill="#2C8073"/>
<mask id="mask25_381_569" style="mask-type:luminance" maskUnits="userSpaceOnUse" x="186" y="98" width="11" height="16">
<path d="M186.002 98.0559H196.923V113.744H186.002V98.0559Z" fill="white"/>
</mask>
<g mask="url(#mask25_381_569)">
<g opacity="0.399994">
<path d="M196.538 102.283C195.879 100.578 190.144 98.7088 187.267 98.056L186.002 107.517C186.002 107.517 190.701 114.27 192.764 113.711C195.201 113.052 197.949 105.935 196.538 102.283Z" fill="black"/>
</g>
</g>
<path d="M190.24 101.807C190.24 101.807 187.846 102.65 192.642 132.14H213.053C212.711 123.832 212.701 118.71 216.672 101.661C216.672 101.661 212.395 100.731 208.004 100.519C204.569 100.354 201.755 100.244 198.736 100.519C194.755 100.883 190.24 101.807 190.24 101.807Z" fill="#2C8073"/>
<mask id="mask26_381_569" style="mask-type:luminance" maskUnits="userSpaceOnUse" x="189" y="100" width="28" height="33">
<path d="M189.642 100.352H216.671V132.14H189.642V100.352Z" fill="white"/>
</mask>
<g mask="url(#mask26_381_569)">
<g opacity="0.399994">
<path d="M190.24 101.807C190.24 101.807 187.846 102.65 192.642 132.14H213.053C212.711 123.832 212.701 118.71 216.672 101.661C216.672 101.661 212.395 100.731 208.004 100.519C204.569 100.354 201.755 100.244 198.736 100.519C194.755 100.883 190.24 101.807 190.24 101.807Z" fill="black"/>
</g>
</g>
<path d="M213.359 130.942L214.279 132.769C214.351 132.911 214.183 133.055 213.947 133.055H192.541C192.357 133.055 192.204 132.965 192.193 132.85L192.009 131.023C191.996 130.896 192.156 130.789 192.357 130.789H213.027C213.178 130.789 213.313 130.851 213.359 130.942Z" fill="#2C8073"/>
<mask id="mask27_381_569" style="mask-type:luminance" maskUnits="userSpaceOnUse" x="192" y="130" width="23" height="4">
<path d="M192.008 130.789H214.296V133.056H192.008V130.789Z" fill="white"/>
</mask>
<g mask="url(#mask27_381_569)">
<g opacity="0.300003">
<path d="M213.359 130.942L214.279 132.769C214.351 132.911 214.183 133.055 213.947 133.055H192.541C192.357 133.055 192.204 132.965 192.193 132.85L192.009 131.023C191.996 130.896 192.156 130.789 192.357 130.789H213.027C213.178 130.789 213.313 130.851 213.359 130.942Z" fill="white"/>
</g>
</g>
<path d="M210.583 133.253H211.137C211.246 133.253 211.33 133.196 211.323 133.127L211.063 130.753C211.056 130.684 210.96 130.627 210.849 130.627H210.295C210.186 130.627 210.102 130.684 210.109 130.753L210.369 133.127C210.376 133.196 210.472 133.253 210.583 133.253Z" fill="#1A2E35"/>
<path d="M197.164 133.253H197.718C197.828 133.253 197.912 133.196 197.905 133.127L197.645 130.753C197.637 130.684 197.541 130.627 197.431 130.627H196.877C196.767 130.627 196.683 130.684 196.69 130.753L196.95 133.127C196.958 133.196 197.054 133.253 197.164 133.253Z" fill="#1A2E35"/>
</g>
</svg>
