<svg width="222" height="229" viewBox="0 0 222 229" fill="none" xmlns="http://www.w3.org/2000/svg">
<path d="M24.0351 100.342C24.0351 100.342 62.806 98.7899 71.1844 35.0588C78.6247 -21.5405 144.003 4.22142 162.901 26.7833C187.382 56.0102 174.332 106.287 206.001 112.638C237.67 118.99 216.99 189.606 168.918 182.846C109.118 174.438 123.586 209.382 105.634 224.173C92.7506 234.788 39.9234 224.569 38.1628 186.036C36.6812 153.61 23.0034 153.713 13.3086 150.036C-0.673646 144.734 -9.48398 106.33 24.0351 100.342Z" fill="#196C88" fill-opacity="0.1"/>
<path d="M155.834 171.12L117.743 133.481L110.201 141.114L148.292 178.753L155.834 171.12Z" fill="#043B50" fill-opacity="0.4"/>
<path d="M170.385 181.233L140.75 151.95C140.585 151.787 140.319 151.789 140.156 151.954L128.94 163.305C128.776 163.47 128.778 163.736 128.943 163.899L158.578 193.182C158.743 193.345 159.009 193.344 159.172 193.179L170.389 181.827C170.552 181.662 170.55 181.396 170.385 181.233Z" fill="#043B50"/>
<path d="M83.9827 152.41C110.188 152.41 131.432 131.166 131.432 104.961C131.432 78.7552 110.188 57.5114 83.9827 57.5114C57.7771 57.5114 36.5332 78.7552 36.5332 104.961C36.5332 131.166 57.7771 152.41 83.9827 152.41Z" fill="#043B50"/>
<path d="M83.9826 144.668C105.912 144.668 123.69 126.891 123.69 104.961C123.69 83.0314 105.912 65.2539 83.9826 65.2539C62.0529 65.2539 44.2754 83.0314 44.2754 104.961C44.2754 126.891 62.0529 144.668 83.9826 144.668Z" fill="#D4E5FF"/>
<path d="M164.202 62.0662C153.072 58.4585 141.043 64.5602 137.421 75.7359C133.814 86.8659 139.915 98.894 151.091 102.516C162.267 106.138 174.264 99.9771 177.872 88.8465C181.48 77.716 175.332 65.6737 164.202 62.0662ZM160.843 72.4276C162.089 72.8314 163.187 73.5962 163.997 74.6248C164.808 75.6534 165.295 76.8996 165.396 78.2053C165.497 79.511 165.209 80.8174 164.567 81.9588C163.924 83.1001 162.958 84.025 161.789 84.6162C160.62 85.2074 159.303 85.4382 158.003 85.2793C156.703 85.1205 155.479 84.5791 154.487 83.7239C153.496 82.8687 152.78 81.7382 152.432 80.4758C152.083 79.2134 152.117 77.8759 152.53 76.6331C153.645 73.1944 157.404 71.3131 160.843 72.4276ZM152.44 98.3536C148.742 97.1612 145.574 94.7203 143.478 91.449C147.4 89.2203 151.502 88.5996 155.212 89.8022C158.922 91.0048 161.939 93.8825 163.749 98.0189C160.132 99.4388 156.134 99.5571 152.44 98.3536Z" fill="#043B50"/>
<path d="M71.5631 163.489C69.6299 164.476 68.0327 166.014 66.9735 167.908C65.9143 169.803 65.4407 171.969 65.6126 174.133C65.7845 176.296 66.5941 178.361 67.9391 180.064C69.2841 181.768 71.104 183.034 73.1688 183.703C75.2335 184.373 77.4504 184.415 79.539 183.824C81.6276 183.233 83.4941 182.036 84.9026 180.385C86.311 178.733 87.1981 176.701 87.4516 174.546C87.7052 172.39 87.3138 170.208 86.327 168.274C85.0014 165.684 82.7025 163.726 79.9346 162.829C77.1668 161.932 74.1561 162.169 71.5631 163.489ZM74.1193 168.497C74.7214 168.189 75.4012 168.068 76.0726 168.147C76.7439 168.227 77.3765 168.504 77.8901 168.944C78.4037 169.383 78.7751 169.965 78.9573 170.616C79.1395 171.267 79.1242 171.958 78.9134 172.6C78.7026 173.243 78.3058 173.808 77.7733 174.224C77.2408 174.641 76.5965 174.89 75.9223 174.94C75.2481 174.989 74.5743 174.838 73.9864 174.504C73.3985 174.17 72.9229 173.67 72.62 173.065C72.2185 172.26 72.1508 171.328 72.4315 170.473C72.7121 169.618 73.3185 168.907 74.1193 168.496V168.497ZM80.5149 181.027C78.73 181.941 76.6828 182.207 74.7238 181.778C75.3419 179.532 76.6122 177.809 78.4058 176.894C80.1993 175.978 82.3504 175.928 84.5205 176.777C83.7186 178.615 82.3025 180.117 80.5149 181.026V181.027Z" fill="#043B50"/>
</svg>
