<svg width="265" height="280" viewBox="0 0 265 280" fill="none" xmlns="http://www.w3.org/2000/svg">
<path d="M168.484 247.392C221.25 229.593 247.793 167.04 227.769 107.676C207.745 48.3118 148.737 14.6162 95.9701 32.4148C43.2035 50.2135 16.6605 112.766 36.6846 172.131C56.7086 231.495 115.717 265.19 168.484 247.392Z" fill="#9ED5D8"/>
<path d="M213.085 201.468H51.2479C47.276 201.468 44.056 198.248 44.056 194.276V92.5381C44.056 88.5662 47.276 85.3462 51.2479 85.3462H213.085C217.057 85.3462 220.277 88.5662 220.277 92.5381V194.276C220.277 198.248 217.057 201.468 213.085 201.468Z" fill="#EFEEEE"/>
<path d="M213.085 85.3462H51.2479C47.276 85.3462 44.056 88.5662 44.056 92.5381V99.6067H220.276V92.5381C220.277 88.5662 217.057 85.3462 213.085 85.3462Z" fill="#2C8073"/>
<path d="M191.046 95.2496C192.452 95.2496 193.593 94.1094 193.593 92.7029C193.593 91.2964 192.452 90.1562 191.046 90.1562C189.64 90.1562 188.499 91.2964 188.499 92.7029C188.499 94.1094 189.64 95.2496 191.046 95.2496Z" stroke="black" stroke-miterlimit="10" stroke-linejoin="round"/>
<path d="M200.568 95.2496C201.974 95.2496 203.115 94.1094 203.115 92.7029C203.115 91.2964 201.974 90.1562 200.568 90.1562C199.161 90.1562 198.021 91.2964 198.021 92.7029C198.021 94.1094 199.161 95.2496 200.568 95.2496Z" stroke="black" stroke-miterlimit="10" stroke-linejoin="round"/>
<path d="M210.091 95.2496C211.497 95.2496 212.637 94.1094 212.637 92.7029C212.637 91.2964 211.497 90.1562 210.091 90.1562C208.684 90.1562 207.544 91.2964 207.544 92.7029C207.544 94.1094 208.684 95.2496 210.091 95.2496Z" stroke="black" stroke-miterlimit="10" stroke-linejoin="round"/>
<path d="M116.314 120.937C114.306 120.937 112.362 119.595 110.82 118.308L108.942 116.741C107.781 115.772 106.401 115.253 104.987 115.253H88.9687C87.5152 115.253 86.337 116.431 86.337 117.885V120.937V176.884C86.337 178.836 87.9187 180.417 89.8692 180.417H170.729C172.68 180.417 174.261 178.835 174.261 176.884V124.47C174.261 122.518 172.679 120.937 170.729 120.937H116.314V120.937Z" fill="#2C8073"/>
<path d="M167.821 132.255H144.947C143.928 132.255 143.101 131.428 143.101 130.408C143.101 129.389 143.928 128.562 144.947 128.562H167.821C168.841 128.562 169.668 129.389 169.668 130.408C169.668 131.429 168.841 132.255 167.821 132.255Z" stroke="black" stroke-miterlimit="10"/>
<path d="M197.059 15.153C209.096 15.4808 219.054 25.1216 219.747 37.1427C220.154 44.2114 217.415 50.6436 212.805 55.1812C212.124 55.8516 211.807 56.8074 211.967 57.7498L213.698 67.9945L203.046 61.7882C202.439 61.4349 201.724 61.3046 201.036 61.4441C198.432 61.9695 195.673 62.0657 192.829 61.6353C182.306 60.0409 174.096 51.3296 173.126 40.7302C171.832 26.6041 183.116 14.7728 197.059 15.153Z" fill="#EFEEEE"/>
<path d="M195.765 48.9669C195.441 48.9669 195.193 48.8643 195.021 48.6596C194.849 48.455 194.763 48.1697 194.763 47.803C194.763 47.4582 194.854 47.1778 195.038 46.9626C195.22 46.7473 195.463 46.639 195.765 46.639C196.109 46.639 196.363 46.7417 196.525 46.9463C196.687 47.1516 196.767 47.4369 196.767 47.803C196.767 48.1265 196.681 48.4012 196.508 48.6278C196.335 48.8536 196.088 48.9669 195.765 48.9669ZM195.566 40.9155C195.541 40.2479 195.517 39.5633 195.492 38.8623C195.467 38.1621 195.449 37.4612 195.437 36.7603C195.424 36.0601 195.43 35.3429 195.455 34.6101V26.0737H196.267L196.304 34.6101C196.304 35.3429 196.297 36.0601 196.285 36.7603C196.272 37.4612 196.254 38.1621 196.23 38.8623C196.204 39.5633 196.18 40.2479 196.156 40.9155H195.566Z" fill="black"/>
<path d="M106.339 157V147.9H107.262L113.216 155.778L113.034 156.012C113.008 155.873 112.986 155.665 112.969 155.388C112.96 155.111 112.947 154.799 112.93 154.452C112.921 154.097 112.913 153.728 112.904 153.347C112.895 152.966 112.887 152.593 112.878 152.229C112.878 151.865 112.878 151.536 112.878 151.241V147.9H113.892V157H112.943L107.015 149.226L107.171 148.953C107.197 149.3 107.219 149.642 107.236 149.98C107.262 150.318 107.279 150.643 107.288 150.955C107.305 151.267 107.318 151.553 107.327 151.813C107.336 152.073 107.34 152.294 107.34 152.476C107.349 152.658 107.353 152.788 107.353 152.866V157H106.339ZM119.184 157.13C118.508 157.13 117.906 156.978 117.377 156.675C116.857 156.372 116.446 155.951 116.142 155.414C115.848 154.877 115.7 154.266 115.7 153.581C115.7 152.905 115.848 152.303 116.142 151.774C116.446 151.245 116.857 150.829 117.377 150.526C117.906 150.223 118.508 150.071 119.184 150.071C119.852 150.071 120.445 150.223 120.965 150.526C121.494 150.829 121.906 151.245 122.2 151.774C122.504 152.303 122.655 152.905 122.655 153.581C122.655 154.266 122.504 154.877 122.2 155.414C121.906 155.951 121.494 156.372 120.965 156.675C120.445 156.978 119.852 157.13 119.184 157.13ZM119.184 156.207C119.661 156.207 120.086 156.094 120.458 155.869C120.831 155.635 121.121 155.323 121.329 154.933C121.537 154.534 121.641 154.084 121.641 153.581C121.641 153.078 121.537 152.632 121.329 152.242C121.121 151.852 120.831 151.549 120.458 151.332C120.086 151.107 119.661 150.994 119.184 150.994C118.708 150.994 118.279 151.107 117.897 151.332C117.525 151.549 117.23 151.856 117.013 152.255C116.805 152.645 116.706 153.087 116.714 153.581C116.706 154.084 116.805 154.534 117.013 154.933C117.23 155.323 117.525 155.635 117.897 155.869C118.279 156.094 118.708 156.207 119.184 156.207ZM128.111 157V147.9H131.543C132.167 147.9 132.735 148.013 133.246 148.238C133.766 148.455 134.217 148.767 134.598 149.174C134.98 149.581 135.274 150.062 135.482 150.617C135.69 151.172 135.794 151.783 135.794 152.45C135.794 153.117 135.69 153.733 135.482 154.296C135.274 154.851 134.98 155.332 134.598 155.739C134.226 156.138 133.779 156.45 133.259 156.675C132.739 156.892 132.167 157 131.543 157H128.111ZM129.125 156.194L129.008 156.012H131.478C131.955 156.012 132.393 155.93 132.791 155.765C133.199 155.592 133.545 155.349 133.831 155.037C134.126 154.716 134.351 154.339 134.507 153.906C134.672 153.473 134.754 152.987 134.754 152.45C134.754 151.913 134.672 151.427 134.507 150.994C134.351 150.561 134.126 150.188 133.831 149.876C133.537 149.555 133.19 149.313 132.791 149.148C132.393 148.975 131.955 148.888 131.478 148.888H128.969L129.125 148.732V156.194ZM140.035 157.13C139.445 157.13 138.912 156.978 138.436 156.675C137.959 156.363 137.582 155.943 137.305 155.414C137.027 154.877 136.889 154.27 136.889 153.594C136.889 152.909 137.032 152.303 137.318 151.774C137.604 151.245 137.985 150.829 138.462 150.526C138.947 150.223 139.489 150.071 140.087 150.071C140.442 150.071 140.771 150.123 141.075 150.227C141.378 150.331 141.647 150.478 141.881 150.669C142.123 150.851 142.323 151.068 142.479 151.319C142.643 151.562 142.756 151.826 142.817 152.112L142.531 151.969L142.57 150.214H143.545V157H142.557V155.336L142.817 155.167C142.756 155.427 142.639 155.678 142.466 155.921C142.292 156.155 142.08 156.363 141.829 156.545C141.586 156.727 141.309 156.87 140.997 156.974C140.693 157.078 140.373 157.13 140.035 157.13ZM140.256 156.194C140.706 156.194 141.109 156.086 141.465 155.869C141.82 155.644 142.097 155.336 142.297 154.946C142.505 154.547 142.609 154.097 142.609 153.594C142.609 153.091 142.505 152.645 142.297 152.255C142.097 151.865 141.82 151.557 141.465 151.332C141.109 151.107 140.706 150.994 140.256 150.994C139.796 150.994 139.389 151.107 139.034 151.332C138.687 151.557 138.41 151.865 138.202 152.255C138.002 152.645 137.903 153.091 137.903 153.594C137.903 154.088 138.002 154.534 138.202 154.933C138.401 155.323 138.678 155.631 139.034 155.856C139.389 156.081 139.796 156.194 140.256 156.194ZM146.38 157V148.433H147.355V157H146.38ZM144.846 151.15V150.214H149.071V151.15H144.846ZM152.857 157.13C152.268 157.13 151.735 156.978 151.258 156.675C150.781 156.363 150.404 155.943 150.127 155.414C149.85 154.877 149.711 154.27 149.711 153.594C149.711 152.909 149.854 152.303 150.14 151.774C150.426 151.245 150.807 150.829 151.284 150.526C151.769 150.223 152.311 150.071 152.909 150.071C153.264 150.071 153.594 150.123 153.897 150.227C154.2 150.331 154.469 150.478 154.703 150.669C154.946 150.851 155.145 151.068 155.301 151.319C155.466 151.562 155.578 151.826 155.639 152.112L155.353 151.969L155.392 150.214H156.367V157H155.379V155.336L155.639 155.167C155.578 155.427 155.461 155.678 155.288 155.921C155.115 156.155 154.902 156.363 154.651 156.545C154.408 156.727 154.131 156.87 153.819 156.974C153.516 157.078 153.195 157.13 152.857 157.13ZM153.078 156.194C153.529 156.194 153.932 156.086 154.287 155.869C154.642 155.644 154.92 155.336 155.119 154.946C155.327 154.547 155.431 154.097 155.431 153.594C155.431 153.091 155.327 152.645 155.119 152.255C154.92 151.865 154.642 151.557 154.287 151.332C153.932 151.107 153.529 150.994 153.078 150.994C152.619 150.994 152.211 151.107 151.856 151.332C151.509 151.557 151.232 151.865 151.024 152.255C150.825 152.645 150.725 153.091 150.725 153.594C150.725 154.088 150.825 154.534 151.024 154.933C151.223 155.323 151.501 155.631 151.856 155.856C152.211 156.081 152.619 156.194 153.078 156.194Z" fill="#DFDFEB"/>
</svg>
